<svg width="100%" viewBox="0 0 200 200"><path d="M170.82228,179.5756h26.5252c1.59151,0 2.65252,-1.06101 2.65252,-2.65252v-153.84615c0,-1.32626 -1.06101,-2.65252 -2.65252,-2.65252h-26.5252c-1.32626,0 -2.65252,1.32626 -2.65252,2.65252v61.00796h-29.17772c-1.32626,0 -2.65252,1.06101 -2.65252,2.65252v26.5252c0,1.32626 1.32626,2.65252 2.65252,2.65252h29.17772v61.00796c0,1.59151 1.32626,2.65252 2.65252,2.65252zM115.11936,176.92308v-153.84615c0,-1.32626 -1.32626,-2.65252 -2.91777,-2.65252h-26.25995c-1.59151,0 -2.91777,1.32626 -2.91777,2.65252v92.8382l-46.15385,-92.57294c-0.79576,-1.85676 -2.65252,-2.91777 -4.77454,-2.91777h-29.44297c-1.59151,0 -2.65252,1.06101 -2.65252,2.38727c0,0.5305 0,1.06101 0.26525,1.32626l76.12732,152.51989c0.79576,1.85676 2.65252,2.91777 4.77454,2.91777h31.03448c1.59151,0 2.91777,-1.32626 2.91777,-2.65252z" fill-rule="nonzero"></path></svg>